<svg width="1440" height="582" viewBox="0 0 1440 582" fill="none" xmlns="http://www.w3.org/2000/svg">
<rect x="9" y="10" width="1440" height="570" fill="url(#paint0_linear_157046_2)"/>
<g filter="url(#filter0_d_157046_2)">
<path d="M1444.5 410C1413.85 410 1389 434.624 1389 465H1444.5V410Z" fill="white"/>
</g>
<circle cx="705" cy="541" r="4" fill="#5283FF"/>
<circle cx="725" cy="541" r="4" fill="#D1D6E3"/>
<circle cx="745" cy="541" r="4" fill="#D1D6E3"/>
<path d="M2 530.51C204.703 530.51 349.472 495.633 482.333 497.758C791.74 502.705 645.639 355.682 962.667 355.682C1307.86 355.682 1225.24 226 1443 226" stroke="#5F82FF" stroke-width="3"/>
<path d="M482.333 497.758C349.472 495.633 204.703 530.51 2 530.51V573H1443V226C1225.24 226 1307.86 355.682 962.667 355.682C645.639 355.682 791.74 502.705 482.333 497.758Z" fill="url(#paint1_linear_157046_2)" fill-opacity="0.4"/>
<line x1="926.5" y1="308" x2="926.5" y2="497" stroke="#D8E0F7"/>
<g filter="url(#filter1_d_157046_2)">
<circle cx="926.5" cy="356.5" r="7.5" fill="white"/>
<circle cx="926.5" cy="356.5" r="6.5" stroke="#5E80FE" stroke-width="2"/>
</g>
<line x1="1334.5" y1="108" x2="1334.5" y2="425" stroke="#D8E0F7"/>
<g filter="url(#filter2_d_157046_2)">
<circle cx="1334.5" cy="242.5" r="7.5" fill="white"/>
<circle cx="1334.5" cy="242.5" r="6.5" stroke="#5E80FE" stroke-width="2"/>
</g>
<line x1="517.5" y1="486" x2="517.5" y2="545" stroke="#D8E0F7"/>
<line x1="109.5" y1="370" x2="109.5" y2="560" stroke="#D8E0F7"/>
<g filter="url(#filter3_d_157046_2)">
<circle cx="109.5" cy="527.5" r="7.5" fill="white"/>
<circle cx="109.5" cy="527.5" r="6.5" stroke="#5E80FE" stroke-width="2"/>
</g>
<g filter="url(#filter4_d_157046_2)">
<path d="M266.72 401.48C260.247 401.48 255 406.83 255 413.429H278.441C278.441 406.83 273.194 401.48 266.72 401.48Z" fill="white"/>
</g>
<g filter="url(#filter5_d_157046_2)">
<path d="M312.683 407.455C303.672 407.455 296.366 414.862 296.366 424H329C329 414.862 321.695 407.455 312.683 407.455Z" fill="white"/>
</g>
<g filter="url(#filter6_d_157046_2)">
<path d="M288.093 399.182C274.386 399.182 263.273 410.293 263.273 424H312.913C312.913 410.293 301.801 399.182 288.093 399.182Z" fill="white"/>
</g>
<g filter="url(#filter7_d_157046_2)">
<path d="M1207.01 497.459C1188.23 497.459 1173 512.924 1173 532H1241.02C1241.02 512.924 1225.79 497.459 1207.01 497.459Z" fill="white"/>
</g>
<g filter="url(#filter8_d_157046_2)">
<path d="M1183.68 468C1170.6 468 1160 478.781 1160 492.081H1207.37C1207.37 478.781 1196.76 468 1183.68 468Z" fill="white"/>
</g>
<g filter="url(#filter9_d_157046_2)">
<path d="M1138.73 480.189C1110.16 480.189 1087 503.386 1087 532H1190.47C1190.47 503.386 1167.31 480.189 1138.73 480.189Z" fill="white"/>
</g>
<g filter="url(#filter10_d_157046_2)">
<path d="M1264.91 56C1243.42 56 1226 73.4609 1226 95H1303.81C1303.81 73.4609 1286.39 56 1264.91 56Z" fill="white"/>
</g>
<g filter="url(#filter11_d_157046_2)">
<path d="M1281.5 89C1269.07 89 1259 99.2975 1259 112H1304C1304 99.2975 1293.93 89 1281.5 89Z" fill="white"/>
</g>
<g filter="url(#filter12_d_157046_2)">
<path d="M277.5 95C265.074 95 255 105.297 255 118H300C300 105.297 289.926 95 277.5 95Z" fill="white"/>
</g>
<g filter="url(#filter13_d_157046_2)">
<path d="M77 255C77 213.026 43.6452 179 2.5 179V255H77Z" fill="white"/>
</g>
<g filter="url(#filter14_d_157046_2)">
<path d="M319.112 389C313.651 389 309.224 393.559 309.224 399.182H329C329 393.559 324.573 389 319.112 389Z" fill="white"/>
</g>
<g filter="url(#filter15_d_157046_2)">
<path d="M1225.5 40C1216.94 40 1210 47.1634 1210 56H1241C1241 47.1634 1234.06 40 1225.5 40Z" fill="white"/>
</g>
<line x1="5" y1="3.5" x2="1445" y2="3.5" stroke="#D8E3FE"/>
<g filter="url(#filter16_d_157046_2)">
<circle cx="520.5" cy="497.5" r="7.5" fill="white"/>
<circle cx="520.5" cy="497.5" r="6.5" stroke="#5E80FE" stroke-width="2"/>
</g>
<g filter="url(#filter17_d_157046_2)">
<mask id="path-33-inside-1_157046_2" fill="white">
<path d="M567 468.26C567 469.917 565.657 471.26 564 471.26H527.33C526.334 471.26 525.403 471.754 524.845 472.579L523.485 474.59C522.295 476.35 519.705 476.35 518.515 474.59L517.155 472.579C516.597 471.754 515.666 471.26 514.67 471.26H478C476.343 471.26 475 469.917 475 468.26V411C475 409.343 476.343 408 478 408H564C565.657 408 567 409.343 567 411V468.26Z"/>
</mask>
<path d="M567 468.26C567 469.917 565.657 471.26 564 471.26H527.33C526.334 471.26 525.403 471.754 524.845 472.579L523.485 474.59C522.295 476.35 519.705 476.35 518.515 474.59L517.155 472.579C516.597 471.754 515.666 471.26 514.67 471.26H478C476.343 471.26 475 469.917 475 468.26V411C475 409.343 476.343 408 478 408H564C565.657 408 567 409.343 567 411V468.26Z" fill="white"/>
<path d="M517.155 472.579L516.327 473.139L517.155 472.579ZM523.485 474.59L524.314 475.151L523.485 474.59ZM518.515 474.59L517.686 475.151L518.515 474.59ZM524.845 472.579L524.017 472.019L524.845 472.579ZM564 471.26V470.26H527.33V471.26V472.26H564V471.26ZM524.845 472.579L524.017 472.019L522.657 474.03L523.485 474.59L524.314 475.151L525.673 473.139L524.845 472.579ZM518.515 474.59L519.343 474.03L517.983 472.019L517.155 472.579L516.327 473.139L517.686 475.151L518.515 474.59ZM514.67 471.26V470.26H478V471.26V472.26H514.67V471.26ZM475 468.26H476V411H475H474V468.26H475ZM478 408V409H564V408V407H478V408ZM567 411H566V468.26H567H568V411H567ZM564 408V409C565.105 409 566 409.895 566 411H567H568C568 408.791 566.209 407 564 407V408ZM475 411H476C476 409.895 476.895 409 478 409V408V407C475.791 407 474 408.791 474 411H475ZM478 471.26V470.26C476.895 470.26 476 469.364 476 468.26H475H474C474 470.469 475.791 472.26 478 472.26V471.26ZM517.155 472.579L517.983 472.019C517.239 470.919 515.998 470.26 514.67 470.26V471.26V472.26C515.334 472.26 515.955 472.589 516.327 473.139L517.155 472.579ZM523.485 474.59L522.657 474.03C521.864 475.203 520.136 475.203 519.343 474.03L518.515 474.59L517.686 475.151C519.273 477.496 522.727 477.496 524.314 475.151L523.485 474.59ZM527.33 471.26V470.26C526.002 470.26 524.761 470.919 524.017 472.019L524.845 472.579L525.673 473.139C526.045 472.589 526.666 472.26 527.33 472.26V471.26ZM564 471.26V472.26C566.209 472.26 568 470.469 568 468.26H567H566C566 469.364 565.105 470.26 564 470.26V471.26Z" fill="#D8E0F7" mask="url(#path-33-inside-1_157046_2)"/>
<path d="M504 441.25C504 431.723 511.668 424 521.128 424C522.871 424 524.554 424.262 526.139 424.75" stroke="#5F82FF" stroke-width="4" stroke-linecap="round" stroke-linejoin="round"/>
<path d="M517.441 437.537C519.477 435.487 533.787 427 534.532 427.75C535.275 428.502 526.849 442.912 524.813 444.962C522.778 447.012 519.477 447.012 517.441 444.962C515.406 442.912 515.406 439.587 517.441 437.537ZM521.128 439.75C520.305 439.75 519.638 440.422 519.638 441.25C519.638 442.079 520.305 442.75 521.128 442.75C521.95 442.75 522.617 442.078 522.617 441.25C522.617 440.422 521.95 439.75 521.128 439.75Z" fill="#5F82FF"/>
<ellipse cx="506.234" cy="450.25" rx="1.48936" ry="1.5" fill="#5F82FF"/>
<ellipse cx="512.192" cy="456.25" rx="1.48936" ry="1.5" fill="#5F82FF"/>
<ellipse cx="521.128" cy="458.5" rx="1.48936" ry="1.5" fill="#5F82FF"/>
<ellipse cx="530.064" cy="456.25" rx="1.48936" ry="1.5" fill="#5F82FF"/>
<ellipse cx="535.277" cy="450.25" rx="1.48936" ry="1.5" fill="#5F82FF"/>
<ellipse cx="537.511" cy="441.25" rx="1.48936" ry="1.5" fill="#5F82FF"/>
</g>
<defs>
<filter id="filter0_d_157046_2" x="1344" y="370" width="145.5" height="145" filterUnits="userSpaceOnUse" color-interpolation-filters="sRGB">
<feFlood flood-opacity="0" result="BackgroundImageFix"/>
<feColorMatrix in="SourceAlpha" type="matrix" values="0 0 0 0 0 0 0 0 0 0 0 0 0 0 0 0 0 0 127 0" result="hardAlpha"/>
<feOffset dy="5"/>
<feGaussianBlur stdDeviation="22.5"/>
<feColorMatrix type="matrix" values="0 0 0 0 0.593724 0 0 0 0 0.684469 0 0 0 0 0.888646 0 0 0 0.1 0"/>
<feBlend mode="normal" in2="BackgroundImageFix" result="effect1_dropShadow_157046_2"/>
<feBlend mode="normal" in="SourceGraphic" in2="effect1_dropShadow_157046_2" result="shape"/>
</filter>
<filter id="filter1_d_157046_2" x="904" y="334" width="45" height="45" filterUnits="userSpaceOnUse" color-interpolation-filters="sRGB">
<feFlood flood-opacity="0" result="BackgroundImageFix"/>
<feColorMatrix in="SourceAlpha" type="matrix" values="0 0 0 0 0 0 0 0 0 0 0 0 0 0 0 0 0 0 127 0" result="hardAlpha"/>
<feOffset/>
<feGaussianBlur stdDeviation="7.5"/>
<feColorMatrix type="matrix" values="0 0 0 0 0.323144 0 0 0 0 0.512664 0 0 0 0 1 0 0 0 0.25 0"/>
<feBlend mode="normal" in2="BackgroundImageFix" result="effect1_dropShadow_157046_2"/>
<feBlend mode="normal" in="SourceGraphic" in2="effect1_dropShadow_157046_2" result="shape"/>
</filter>
<filter id="filter2_d_157046_2" x="1312" y="220" width="45" height="45" filterUnits="userSpaceOnUse" color-interpolation-filters="sRGB">
<feFlood flood-opacity="0" result="BackgroundImageFix"/>
<feColorMatrix in="SourceAlpha" type="matrix" values="0 0 0 0 0 0 0 0 0 0 0 0 0 0 0 0 0 0 127 0" result="hardAlpha"/>
<feOffset/>
<feGaussianBlur stdDeviation="7.5"/>
<feColorMatrix type="matrix" values="0 0 0 0 0.323144 0 0 0 0 0.512664 0 0 0 0 1 0 0 0 0.25 0"/>
<feBlend mode="normal" in2="BackgroundImageFix" result="effect1_dropShadow_157046_2"/>
<feBlend mode="normal" in="SourceGraphic" in2="effect1_dropShadow_157046_2" result="shape"/>
</filter>
<filter id="filter3_d_157046_2" x="87" y="505" width="45" height="45" filterUnits="userSpaceOnUse" color-interpolation-filters="sRGB">
<feFlood flood-opacity="0" result="BackgroundImageFix"/>
<feColorMatrix in="SourceAlpha" type="matrix" values="0 0 0 0 0 0 0 0 0 0 0 0 0 0 0 0 0 0 127 0" result="hardAlpha"/>
<feOffset/>
<feGaussianBlur stdDeviation="7.5"/>
<feColorMatrix type="matrix" values="0 0 0 0 0.323144 0 0 0 0 0.512664 0 0 0 0 1 0 0 0 0.25 0"/>
<feBlend mode="normal" in2="BackgroundImageFix" result="effect1_dropShadow_157046_2"/>
<feBlend mode="normal" in="SourceGraphic" in2="effect1_dropShadow_157046_2" result="shape"/>
</filter>
<filter id="filter4_d_157046_2" x="210" y="361.48" width="113.441" height="101.949" filterUnits="userSpaceOnUse" color-interpolation-filters="sRGB">
<feFlood flood-opacity="0" result="BackgroundImageFix"/>
<feColorMatrix in="SourceAlpha" type="matrix" values="0 0 0 0 0 0 0 0 0 0 0 0 0 0 0 0 0 0 127 0" result="hardAlpha"/>
<feOffset dy="5"/>
<feGaussianBlur stdDeviation="22.5"/>
<feColorMatrix type="matrix" values="0 0 0 0 0.593724 0 0 0 0 0.684469 0 0 0 0 0.888646 0 0 0 0.1 0"/>
<feBlend mode="normal" in2="BackgroundImageFix" result="effect1_dropShadow_157046_2"/>
<feBlend mode="normal" in="SourceGraphic" in2="effect1_dropShadow_157046_2" result="shape"/>
</filter>
<filter id="filter5_d_157046_2" x="251.366" y="367.455" width="122.634" height="106.545" filterUnits="userSpaceOnUse" color-interpolation-filters="sRGB">
<feFlood flood-opacity="0" result="BackgroundImageFix"/>
<feColorMatrix in="SourceAlpha" type="matrix" values="0 0 0 0 0 0 0 0 0 0 0 0 0 0 0 0 0 0 127 0" result="hardAlpha"/>
<feOffset dy="5"/>
<feGaussianBlur stdDeviation="22.5"/>
<feColorMatrix type="matrix" values="0 0 0 0 0.593724 0 0 0 0 0.684469 0 0 0 0 0.888646 0 0 0 0.1 0"/>
<feBlend mode="normal" in2="BackgroundImageFix" result="effect1_dropShadow_157046_2"/>
<feBlend mode="normal" in="SourceGraphic" in2="effect1_dropShadow_157046_2" result="shape"/>
</filter>
<filter id="filter6_d_157046_2" x="218.273" y="359.182" width="139.64" height="114.818" filterUnits="userSpaceOnUse" color-interpolation-filters="sRGB">
<feFlood flood-opacity="0" result="BackgroundImageFix"/>
<feColorMatrix in="SourceAlpha" type="matrix" values="0 0 0 0 0 0 0 0 0 0 0 0 0 0 0 0 0 0 127 0" result="hardAlpha"/>
<feOffset dy="5"/>
<feGaussianBlur stdDeviation="22.5"/>
<feColorMatrix type="matrix" values="0 0 0 0 0.593724 0 0 0 0 0.684469 0 0 0 0 0.888646 0 0 0 0.1 0"/>
<feBlend mode="normal" in2="BackgroundImageFix" result="effect1_dropShadow_157046_2"/>
<feBlend mode="normal" in="SourceGraphic" in2="effect1_dropShadow_157046_2" result="shape"/>
</filter>
<filter id="filter7_d_157046_2" x="1128" y="457.459" width="158.021" height="124.541" filterUnits="userSpaceOnUse" color-interpolation-filters="sRGB">
<feFlood flood-opacity="0" result="BackgroundImageFix"/>
<feColorMatrix in="SourceAlpha" type="matrix" values="0 0 0 0 0 0 0 0 0 0 0 0 0 0 0 0 0 0 127 0" result="hardAlpha"/>
<feOffset dy="5"/>
<feGaussianBlur stdDeviation="22.5"/>
<feColorMatrix type="matrix" values="0 0 0 0 0.593724 0 0 0 0 0.684469 0 0 0 0 0.888646 0 0 0 0.1 0"/>
<feBlend mode="normal" in2="BackgroundImageFix" result="effect1_dropShadow_157046_2"/>
<feBlend mode="normal" in="SourceGraphic" in2="effect1_dropShadow_157046_2" result="shape"/>
</filter>
<filter id="filter8_d_157046_2" x="1115" y="428" width="137.367" height="114.081" filterUnits="userSpaceOnUse" color-interpolation-filters="sRGB">
<feFlood flood-opacity="0" result="BackgroundImageFix"/>
<feColorMatrix in="SourceAlpha" type="matrix" values="0 0 0 0 0 0 0 0 0 0 0 0 0 0 0 0 0 0 127 0" result="hardAlpha"/>
<feOffset dy="5"/>
<feGaussianBlur stdDeviation="22.5"/>
<feColorMatrix type="matrix" values="0 0 0 0 0.593724 0 0 0 0 0.684469 0 0 0 0 0.888646 0 0 0 0.1 0"/>
<feBlend mode="normal" in2="BackgroundImageFix" result="effect1_dropShadow_157046_2"/>
<feBlend mode="normal" in="SourceGraphic" in2="effect1_dropShadow_157046_2" result="shape"/>
</filter>
<filter id="filter9_d_157046_2" x="1042" y="440.189" width="193.469" height="141.811" filterUnits="userSpaceOnUse" color-interpolation-filters="sRGB">
<feFlood flood-opacity="0" result="BackgroundImageFix"/>
<feColorMatrix in="SourceAlpha" type="matrix" values="0 0 0 0 0 0 0 0 0 0 0 0 0 0 0 0 0 0 127 0" result="hardAlpha"/>
<feOffset dy="5"/>
<feGaussianBlur stdDeviation="22.5"/>
<feColorMatrix type="matrix" values="0 0 0 0 0.593724 0 0 0 0 0.684469 0 0 0 0 0.888646 0 0 0 0.1 0"/>
<feBlend mode="normal" in2="BackgroundImageFix" result="effect1_dropShadow_157046_2"/>
<feBlend mode="normal" in="SourceGraphic" in2="effect1_dropShadow_157046_2" result="shape"/>
</filter>
<filter id="filter10_d_157046_2" x="1181" y="16" width="167.814" height="129" filterUnits="userSpaceOnUse" color-interpolation-filters="sRGB">
<feFlood flood-opacity="0" result="BackgroundImageFix"/>
<feColorMatrix in="SourceAlpha" type="matrix" values="0 0 0 0 0 0 0 0 0 0 0 0 0 0 0 0 0 0 127 0" result="hardAlpha"/>
<feOffset dy="5"/>
<feGaussianBlur stdDeviation="22.5"/>
<feColorMatrix type="matrix" values="0 0 0 0 0.593724 0 0 0 0 0.684469 0 0 0 0 0.888646 0 0 0 0.1 0"/>
<feBlend mode="normal" in2="BackgroundImageFix" result="effect1_dropShadow_157046_2"/>
<feBlend mode="normal" in="SourceGraphic" in2="effect1_dropShadow_157046_2" result="shape"/>
</filter>
<filter id="filter11_d_157046_2" x="1214" y="49" width="135" height="113" filterUnits="userSpaceOnUse" color-interpolation-filters="sRGB">
<feFlood flood-opacity="0" result="BackgroundImageFix"/>
<feColorMatrix in="SourceAlpha" type="matrix" values="0 0 0 0 0 0 0 0 0 0 0 0 0 0 0 0 0 0 127 0" result="hardAlpha"/>
<feOffset dy="5"/>
<feGaussianBlur stdDeviation="22.5"/>
<feColorMatrix type="matrix" values="0 0 0 0 0.593724 0 0 0 0 0.684469 0 0 0 0 0.888646 0 0 0 0.1 0"/>
<feBlend mode="normal" in2="BackgroundImageFix" result="effect1_dropShadow_157046_2"/>
<feBlend mode="normal" in="SourceGraphic" in2="effect1_dropShadow_157046_2" result="shape"/>
</filter>
<filter id="filter12_d_157046_2" x="210" y="55" width="135" height="113" filterUnits="userSpaceOnUse" color-interpolation-filters="sRGB">
<feFlood flood-opacity="0" result="BackgroundImageFix"/>
<feColorMatrix in="SourceAlpha" type="matrix" values="0 0 0 0 0 0 0 0 0 0 0 0 0 0 0 0 0 0 127 0" result="hardAlpha"/>
<feOffset dy="5"/>
<feGaussianBlur stdDeviation="22.5"/>
<feColorMatrix type="matrix" values="0 0 0 0 0.593724 0 0 0 0 0.684469 0 0 0 0 0.888646 0 0 0 0.1 0"/>
<feBlend mode="normal" in2="BackgroundImageFix" result="effect1_dropShadow_157046_2"/>
<feBlend mode="normal" in="SourceGraphic" in2="effect1_dropShadow_157046_2" result="shape"/>
</filter>
<filter id="filter13_d_157046_2" x="-42.5" y="139" width="164.5" height="166" filterUnits="userSpaceOnUse" color-interpolation-filters="sRGB">
<feFlood flood-opacity="0" result="BackgroundImageFix"/>
<feColorMatrix in="SourceAlpha" type="matrix" values="0 0 0 0 0 0 0 0 0 0 0 0 0 0 0 0 0 0 127 0" result="hardAlpha"/>
<feOffset dy="5"/>
<feGaussianBlur stdDeviation="22.5"/>
<feColorMatrix type="matrix" values="0 0 0 0 0.593724 0 0 0 0 0.684469 0 0 0 0 0.888646 0 0 0 0.1 0"/>
<feBlend mode="normal" in2="BackgroundImageFix" result="effect1_dropShadow_157046_2"/>
<feBlend mode="normal" in="SourceGraphic" in2="effect1_dropShadow_157046_2" result="shape"/>
</filter>
<filter id="filter14_d_157046_2" x="264.224" y="349" width="109.776" height="100.182" filterUnits="userSpaceOnUse" color-interpolation-filters="sRGB">
<feFlood flood-opacity="0" result="BackgroundImageFix"/>
<feColorMatrix in="SourceAlpha" type="matrix" values="0 0 0 0 0 0 0 0 0 0 0 0 0 0 0 0 0 0 127 0" result="hardAlpha"/>
<feOffset dy="5"/>
<feGaussianBlur stdDeviation="22.5"/>
<feColorMatrix type="matrix" values="0 0 0 0 0.593724 0 0 0 0 0.684469 0 0 0 0 0.888646 0 0 0 0.1 0"/>
<feBlend mode="normal" in2="BackgroundImageFix" result="effect1_dropShadow_157046_2"/>
<feBlend mode="normal" in="SourceGraphic" in2="effect1_dropShadow_157046_2" result="shape"/>
</filter>
<filter id="filter15_d_157046_2" x="1165" y="0" width="121" height="106" filterUnits="userSpaceOnUse" color-interpolation-filters="sRGB">
<feFlood flood-opacity="0" result="BackgroundImageFix"/>
<feColorMatrix in="SourceAlpha" type="matrix" values="0 0 0 0 0 0 0 0 0 0 0 0 0 0 0 0 0 0 127 0" result="hardAlpha"/>
<feOffset dy="5"/>
<feGaussianBlur stdDeviation="22.5"/>
<feColorMatrix type="matrix" values="0 0 0 0 0.593724 0 0 0 0 0.684469 0 0 0 0 0.888646 0 0 0 0.1 0"/>
<feBlend mode="normal" in2="BackgroundImageFix" result="effect1_dropShadow_157046_2"/>
<feBlend mode="normal" in="SourceGraphic" in2="effect1_dropShadow_157046_2" result="shape"/>
</filter>
<filter id="filter16_d_157046_2" x="498" y="475" width="45" height="45" filterUnits="userSpaceOnUse" color-interpolation-filters="sRGB">
<feFlood flood-opacity="0" result="BackgroundImageFix"/>
<feColorMatrix in="SourceAlpha" type="matrix" values="0 0 0 0 0 0 0 0 0 0 0 0 0 0 0 0 0 0 127 0" result="hardAlpha"/>
<feOffset/>
<feGaussianBlur stdDeviation="7.5"/>
<feColorMatrix type="matrix" values="0 0 0 0 0.323144 0 0 0 0 0.512664 0 0 0 0 1 0 0 0 0.25 0"/>
<feBlend mode="normal" in2="BackgroundImageFix" result="effect1_dropShadow_157046_2"/>
<feBlend mode="normal" in="SourceGraphic" in2="effect1_dropShadow_157046_2" result="shape"/>
</filter>
<filter id="filter17_d_157046_2" x="445" y="388" width="152" height="127.91" filterUnits="userSpaceOnUse" color-interpolation-filters="sRGB">
<feFlood flood-opacity="0" result="BackgroundImageFix"/>
<feColorMatrix in="SourceAlpha" type="matrix" values="0 0 0 0 0 0 0 0 0 0 0 0 0 0 0 0 0 0 127 0" result="hardAlpha"/>
<feOffset dy="10"/>
<feGaussianBlur stdDeviation="15"/>
<feColorMatrix type="matrix" values="0 0 0 0 0.894415 0 0 0 0 0.918495 0 0 0 0 0.984716 0 0 0 1 0"/>
<feBlend mode="normal" in2="BackgroundImageFix" result="effect1_dropShadow_157046_2"/>
<feBlend mode="normal" in="SourceGraphic" in2="effect1_dropShadow_157046_2" result="shape"/>
</filter>
<linearGradient id="paint0_linear_157046_2" x1="729" y1="10" x2="729" y2="580" gradientUnits="userSpaceOnUse">
<stop stop-color="#F4F7FF"/>
<stop offset="1" stop-color="#F1F5FF"/>
</linearGradient>
<linearGradient id="paint1_linear_157046_2" x1="280.466" y1="573.443" x2="280.466" y2="118.005" gradientUnits="userSpaceOnUse">
<stop stop-color="#4B71FF" stop-opacity="0"/>
<stop offset="1" stop-color="#6B89F8"/>
</linearGradient>
</defs>
</svg>
