<svg width="1440" height="585" viewBox="0 0 1440 585" fill="none" xmlns="http://www.w3.org/2000/svg">
<rect x="-4" width="1440" height="570" fill="url(#paint0_linear_9_326)"/>
<g filter="url(#filter0_d_9_326)">
<path d="M1439.5 413C1408.85 413 1384 437.624 1384 468H1439.5V413Z" fill="white"/>
</g>
<circle cx="700" cy="544" r="4" fill="#5283FF"/>
<circle cx="720" cy="544" r="4" fill="#D1D6E3"/>
<circle cx="740" cy="544" r="4" fill="#D1D6E3"/>
<path d="M0 533.51C202.703 533.51 347.472 498.633 480.333 500.758C789.74 505.705 643.639 358.682 960.667 358.682C1305.86 358.682 1223.24 229 1441 229" stroke="#5F82FF" stroke-width="3"/>
<path d="M480.333 500.758C347.472 498.633 202.703 533.51 0 533.51V576H1441V229C1223.24 229 1305.86 358.682 960.667 358.682C643.639 358.682 789.74 505.705 480.333 500.758Z" fill="url(#paint1_linear_9_326)" fill-opacity="0.4"/>
<line x1="924.5" y1="311" x2="924.5" y2="500" stroke="#D8E0F7"/>
<g filter="url(#filter1_d_9_326)">
<circle cx="924.5" cy="359.5" r="7.5" fill="white"/>
<circle cx="924.5" cy="359.5" r="6.5" stroke="#5E80FE" stroke-width="2"/>
</g>
<line x1="1332.5" y1="111" x2="1332.5" y2="428" stroke="#D8E0F7"/>
<g filter="url(#filter2_d_9_326)">
<circle cx="1332.5" cy="245.5" r="7.5" fill="white"/>
<circle cx="1332.5" cy="245.5" r="6.5" stroke="#5E80FE" stroke-width="2"/>
</g>
<line x1="515.5" y1="489" x2="515.5" y2="548" stroke="#D8E0F7"/>
<line x1="107.5" y1="373" x2="107.5" y2="563" stroke="#D8E0F7"/>
<g filter="url(#filter3_d_9_326)">
<circle cx="107.5" cy="530.5" r="7.5" fill="white"/>
<circle cx="107.5" cy="530.5" r="6.5" stroke="#5E80FE" stroke-width="2"/>
</g>
<g filter="url(#filter4_d_9_326)">
<path d="M264.72 404.48C258.247 404.48 253 409.83 253 416.429H276.441C276.441 409.83 271.194 404.48 264.72 404.48Z" fill="white"/>
</g>
<g filter="url(#filter5_d_9_326)">
<path d="M310.683 410.455C301.672 410.455 294.366 417.862 294.366 427H327C327 417.862 319.695 410.455 310.683 410.455Z" fill="white"/>
</g>
<g filter="url(#filter6_d_9_326)">
<path d="M286.093 402.182C272.386 402.182 261.273 413.293 261.273 427H310.913C310.913 413.293 299.801 402.182 286.093 402.182Z" fill="white"/>
</g>
<g filter="url(#filter7_d_9_326)">
<path d="M1205.01 500.459C1186.23 500.459 1171 515.924 1171 535H1239.02C1239.02 515.924 1223.79 500.459 1205.01 500.459Z" fill="white"/>
</g>
<g filter="url(#filter8_d_9_326)">
<path d="M1181.68 471C1168.6 471 1158 481.781 1158 495.081H1205.37C1205.37 481.781 1194.76 471 1181.68 471Z" fill="white"/>
</g>
<g filter="url(#filter9_d_9_326)">
<path d="M1136.73 483.189C1108.16 483.189 1085 506.386 1085 535H1188.47C1188.47 506.386 1165.31 483.189 1136.73 483.189Z" fill="white"/>
</g>
<g filter="url(#filter10_d_9_326)">
<path d="M1262.91 59C1241.42 59 1224 76.4609 1224 98H1301.81C1301.81 76.4609 1284.39 59 1262.91 59Z" fill="white"/>
</g>
<g filter="url(#filter11_d_9_326)">
<path d="M1279.5 92C1267.07 92 1257 102.297 1257 115H1302C1302 102.297 1291.93 92 1279.5 92Z" fill="white"/>
</g>
<g filter="url(#filter12_d_9_326)">
<path d="M275.5 98C263.074 98 253 108.297 253 121H298C298 108.297 287.926 98 275.5 98Z" fill="white"/>
</g>
<g filter="url(#filter13_d_9_326)">
<path d="M75 258C75 216.026 41.6452 182 0.5 182V258H75Z" fill="white"/>
</g>
<g filter="url(#filter14_d_9_326)">
<path d="M317.112 392C311.651 392 307.224 396.559 307.224 402.182H327C327 396.559 322.573 392 317.112 392Z" fill="white"/>
</g>
<g filter="url(#filter15_d_9_326)">
<path d="M1223.5 43C1214.94 43 1208 50.1634 1208 59H1239C1239 50.1634 1232.06 43 1223.5 43Z" fill="white"/>
</g>
<line y1="6.5" x2="1440" y2="6.5" stroke="#D8E3FE"/>
<g filter="url(#filter16_d_9_326)">
<circle cx="515.5" cy="500.5" r="7.5" fill="white"/>
<circle cx="515.5" cy="500.5" r="6.5" stroke="#5E80FE" stroke-width="2"/>
</g>
<g filter="url(#filter17_d_9_326)">
<mask id="path-33-inside-1_9_326" fill="white">
<path fill-rule="evenodd" clip-rule="evenodd" d="M562 414C562 412.343 560.657 411 559 411H473C471.343 411 470 412.343 470 414V471.26C470 472.917 471.343 474.26 473 474.26H509.669C510.665 474.26 511.596 474.754 512.154 475.579L513.515 477.591C514.705 479.35 517.295 479.35 518.485 477.591L519.846 475.579C520.403 474.754 521.335 474.26 522.331 474.26H559C560.657 474.26 562 472.917 562 471.26V414Z"/>
</mask>
<path fill-rule="evenodd" clip-rule="evenodd" d="M562 414C562 412.343 560.657 411 559 411H473C471.343 411 470 412.343 470 414V471.26C470 472.917 471.343 474.26 473 474.26H509.669C510.665 474.26 511.596 474.754 512.154 475.579L513.515 477.591C514.705 479.35 517.295 479.35 518.485 477.591L519.846 475.579C520.403 474.754 521.335 474.26 522.331 474.26H559C560.657 474.26 562 472.917 562 471.26V414Z" fill="white"/>
<path d="M519.846 475.579L519.017 475.019L519.846 475.579ZM513.515 477.591L514.343 477.031L513.515 477.591ZM512.154 475.579L511.326 476.14L512.154 475.579ZM473 412H559V410H473V412ZM471 471.26V414H469V471.26H471ZM509.669 473.26H473V475.26H509.669V473.26ZM514.343 477.031L512.983 475.019L511.326 476.14L512.687 478.151L514.343 477.031ZM519.017 475.019L517.657 477.031L519.313 478.151L520.674 476.14L519.017 475.019ZM559 473.26H522.331V475.26H559V473.26ZM561 414V471.26H563V414H561ZM559 475.26C561.209 475.26 563 473.469 563 471.26H561C561 472.365 560.105 473.26 559 473.26V475.26ZM520.674 476.14C521.046 475.59 521.667 475.26 522.331 475.26V473.26C521.003 473.26 519.761 473.919 519.017 475.019L520.674 476.14ZM512.687 478.151C514.273 480.497 517.727 480.497 519.313 478.151L517.657 477.031C516.864 478.204 515.136 478.204 514.343 477.031L512.687 478.151ZM509.669 475.26C510.333 475.26 510.954 475.59 511.326 476.14L512.983 475.019C512.239 473.919 510.997 473.26 509.669 473.26V475.26ZM469 471.26C469 473.469 470.791 475.26 473 475.26V473.26C471.895 473.26 471 472.365 471 471.26H469ZM559 412C560.105 412 561 412.895 561 414H563C563 411.791 561.209 410 559 410V412ZM473 410C470.791 410 469 411.791 469 414H471C471 412.895 471.895 412 473 412V410Z" fill="#D8E0F7" mask="url(#path-33-inside-1_9_326)"/>
<path d="M499 444.25C499 434.723 506.668 427 516.128 427C517.871 427 519.554 427.262 521.139 427.75" stroke="#5F82FF" stroke-width="4" stroke-linecap="round" stroke-linejoin="round"/>
<path fill-rule="evenodd" clip-rule="evenodd" d="M512.442 447.962C514.477 450.013 517.778 450.013 519.814 447.962C521.849 445.912 530.276 431.5 529.532 430.75C528.787 430 514.477 438.487 512.442 440.538C510.406 442.588 510.406 445.912 512.442 447.962ZM516.127 445.75C516.95 445.75 517.617 445.078 517.617 444.25C517.617 443.422 516.95 442.75 516.127 442.75C515.305 442.75 514.638 443.422 514.638 444.25C514.638 445.078 515.305 445.75 516.127 445.75Z" fill="#5F82FF"/>
<ellipse cx="501.234" cy="453.25" rx="1.48936" ry="1.5" fill="#5F82FF"/>
<ellipse cx="507.191" cy="459.25" rx="1.48936" ry="1.5" fill="#5F82FF"/>
<ellipse cx="516.128" cy="461.5" rx="1.48936" ry="1.5" fill="#5F82FF"/>
<ellipse cx="525.064" cy="459.25" rx="1.48936" ry="1.5" fill="#5F82FF"/>
<ellipse cx="530.277" cy="453.25" rx="1.48936" ry="1.5" fill="#5F82FF"/>
<ellipse cx="532.511" cy="444.25" rx="1.48936" ry="1.5" fill="#5F82FF"/>
</g>
<defs>
<filter id="filter0_d_9_326" x="1339" y="373" width="145.5" height="145" filterUnits="userSpaceOnUse" color-interpolation-filters="sRGB">
<feFlood flood-opacity="0" result="BackgroundImageFix"/>
<feColorMatrix in="SourceAlpha" type="matrix" values="0 0 0 0 0 0 0 0 0 0 0 0 0 0 0 0 0 0 127 0" result="hardAlpha"/>
<feOffset dy="5"/>
<feGaussianBlur stdDeviation="22.5"/>
<feColorMatrix type="matrix" values="0 0 0 0 0.593724 0 0 0 0 0.684469 0 0 0 0 0.888646 0 0 0 0.1 0"/>
<feBlend mode="normal" in2="BackgroundImageFix" result="effect1_dropShadow_9_326"/>
<feBlend mode="normal" in="SourceGraphic" in2="effect1_dropShadow_9_326" result="shape"/>
</filter>
<filter id="filter1_d_9_326" x="902" y="337" width="45" height="45" filterUnits="userSpaceOnUse" color-interpolation-filters="sRGB">
<feFlood flood-opacity="0" result="BackgroundImageFix"/>
<feColorMatrix in="SourceAlpha" type="matrix" values="0 0 0 0 0 0 0 0 0 0 0 0 0 0 0 0 0 0 127 0" result="hardAlpha"/>
<feOffset/>
<feGaussianBlur stdDeviation="7.5"/>
<feColorMatrix type="matrix" values="0 0 0 0 0.323144 0 0 0 0 0.512664 0 0 0 0 1 0 0 0 0.25 0"/>
<feBlend mode="normal" in2="BackgroundImageFix" result="effect1_dropShadow_9_326"/>
<feBlend mode="normal" in="SourceGraphic" in2="effect1_dropShadow_9_326" result="shape"/>
</filter>
<filter id="filter2_d_9_326" x="1310" y="223" width="45" height="45" filterUnits="userSpaceOnUse" color-interpolation-filters="sRGB">
<feFlood flood-opacity="0" result="BackgroundImageFix"/>
<feColorMatrix in="SourceAlpha" type="matrix" values="0 0 0 0 0 0 0 0 0 0 0 0 0 0 0 0 0 0 127 0" result="hardAlpha"/>
<feOffset/>
<feGaussianBlur stdDeviation="7.5"/>
<feColorMatrix type="matrix" values="0 0 0 0 0.323144 0 0 0 0 0.512664 0 0 0 0 1 0 0 0 0.25 0"/>
<feBlend mode="normal" in2="BackgroundImageFix" result="effect1_dropShadow_9_326"/>
<feBlend mode="normal" in="SourceGraphic" in2="effect1_dropShadow_9_326" result="shape"/>
</filter>
<filter id="filter3_d_9_326" x="85" y="508" width="45" height="45" filterUnits="userSpaceOnUse" color-interpolation-filters="sRGB">
<feFlood flood-opacity="0" result="BackgroundImageFix"/>
<feColorMatrix in="SourceAlpha" type="matrix" values="0 0 0 0 0 0 0 0 0 0 0 0 0 0 0 0 0 0 127 0" result="hardAlpha"/>
<feOffset/>
<feGaussianBlur stdDeviation="7.5"/>
<feColorMatrix type="matrix" values="0 0 0 0 0.323144 0 0 0 0 0.512664 0 0 0 0 1 0 0 0 0.25 0"/>
<feBlend mode="normal" in2="BackgroundImageFix" result="effect1_dropShadow_9_326"/>
<feBlend mode="normal" in="SourceGraphic" in2="effect1_dropShadow_9_326" result="shape"/>
</filter>
<filter id="filter4_d_9_326" x="208" y="364.48" width="113.441" height="101.949" filterUnits="userSpaceOnUse" color-interpolation-filters="sRGB">
<feFlood flood-opacity="0" result="BackgroundImageFix"/>
<feColorMatrix in="SourceAlpha" type="matrix" values="0 0 0 0 0 0 0 0 0 0 0 0 0 0 0 0 0 0 127 0" result="hardAlpha"/>
<feOffset dy="5"/>
<feGaussianBlur stdDeviation="22.5"/>
<feColorMatrix type="matrix" values="0 0 0 0 0.593724 0 0 0 0 0.684469 0 0 0 0 0.888646 0 0 0 0.1 0"/>
<feBlend mode="normal" in2="BackgroundImageFix" result="effect1_dropShadow_9_326"/>
<feBlend mode="normal" in="SourceGraphic" in2="effect1_dropShadow_9_326" result="shape"/>
</filter>
<filter id="filter5_d_9_326" x="249.366" y="370.455" width="122.634" height="106.545" filterUnits="userSpaceOnUse" color-interpolation-filters="sRGB">
<feFlood flood-opacity="0" result="BackgroundImageFix"/>
<feColorMatrix in="SourceAlpha" type="matrix" values="0 0 0 0 0 0 0 0 0 0 0 0 0 0 0 0 0 0 127 0" result="hardAlpha"/>
<feOffset dy="5"/>
<feGaussianBlur stdDeviation="22.5"/>
<feColorMatrix type="matrix" values="0 0 0 0 0.593724 0 0 0 0 0.684469 0 0 0 0 0.888646 0 0 0 0.1 0"/>
<feBlend mode="normal" in2="BackgroundImageFix" result="effect1_dropShadow_9_326"/>
<feBlend mode="normal" in="SourceGraphic" in2="effect1_dropShadow_9_326" result="shape"/>
</filter>
<filter id="filter6_d_9_326" x="216.273" y="362.182" width="139.64" height="114.818" filterUnits="userSpaceOnUse" color-interpolation-filters="sRGB">
<feFlood flood-opacity="0" result="BackgroundImageFix"/>
<feColorMatrix in="SourceAlpha" type="matrix" values="0 0 0 0 0 0 0 0 0 0 0 0 0 0 0 0 0 0 127 0" result="hardAlpha"/>
<feOffset dy="5"/>
<feGaussianBlur stdDeviation="22.5"/>
<feColorMatrix type="matrix" values="0 0 0 0 0.593724 0 0 0 0 0.684469 0 0 0 0 0.888646 0 0 0 0.1 0"/>
<feBlend mode="normal" in2="BackgroundImageFix" result="effect1_dropShadow_9_326"/>
<feBlend mode="normal" in="SourceGraphic" in2="effect1_dropShadow_9_326" result="shape"/>
</filter>
<filter id="filter7_d_9_326" x="1126" y="460.459" width="158.021" height="124.541" filterUnits="userSpaceOnUse" color-interpolation-filters="sRGB">
<feFlood flood-opacity="0" result="BackgroundImageFix"/>
<feColorMatrix in="SourceAlpha" type="matrix" values="0 0 0 0 0 0 0 0 0 0 0 0 0 0 0 0 0 0 127 0" result="hardAlpha"/>
<feOffset dy="5"/>
<feGaussianBlur stdDeviation="22.5"/>
<feColorMatrix type="matrix" values="0 0 0 0 0.593724 0 0 0 0 0.684469 0 0 0 0 0.888646 0 0 0 0.1 0"/>
<feBlend mode="normal" in2="BackgroundImageFix" result="effect1_dropShadow_9_326"/>
<feBlend mode="normal" in="SourceGraphic" in2="effect1_dropShadow_9_326" result="shape"/>
</filter>
<filter id="filter8_d_9_326" x="1113" y="431" width="137.367" height="114.081" filterUnits="userSpaceOnUse" color-interpolation-filters="sRGB">
<feFlood flood-opacity="0" result="BackgroundImageFix"/>
<feColorMatrix in="SourceAlpha" type="matrix" values="0 0 0 0 0 0 0 0 0 0 0 0 0 0 0 0 0 0 127 0" result="hardAlpha"/>
<feOffset dy="5"/>
<feGaussianBlur stdDeviation="22.5"/>
<feColorMatrix type="matrix" values="0 0 0 0 0.593724 0 0 0 0 0.684469 0 0 0 0 0.888646 0 0 0 0.1 0"/>
<feBlend mode="normal" in2="BackgroundImageFix" result="effect1_dropShadow_9_326"/>
<feBlend mode="normal" in="SourceGraphic" in2="effect1_dropShadow_9_326" result="shape"/>
</filter>
<filter id="filter9_d_9_326" x="1040" y="443.189" width="193.469" height="141.811" filterUnits="userSpaceOnUse" color-interpolation-filters="sRGB">
<feFlood flood-opacity="0" result="BackgroundImageFix"/>
<feColorMatrix in="SourceAlpha" type="matrix" values="0 0 0 0 0 0 0 0 0 0 0 0 0 0 0 0 0 0 127 0" result="hardAlpha"/>
<feOffset dy="5"/>
<feGaussianBlur stdDeviation="22.5"/>
<feColorMatrix type="matrix" values="0 0 0 0 0.593724 0 0 0 0 0.684469 0 0 0 0 0.888646 0 0 0 0.1 0"/>
<feBlend mode="normal" in2="BackgroundImageFix" result="effect1_dropShadow_9_326"/>
<feBlend mode="normal" in="SourceGraphic" in2="effect1_dropShadow_9_326" result="shape"/>
</filter>
<filter id="filter10_d_9_326" x="1179" y="19" width="167.814" height="129" filterUnits="userSpaceOnUse" color-interpolation-filters="sRGB">
<feFlood flood-opacity="0" result="BackgroundImageFix"/>
<feColorMatrix in="SourceAlpha" type="matrix" values="0 0 0 0 0 0 0 0 0 0 0 0 0 0 0 0 0 0 127 0" result="hardAlpha"/>
<feOffset dy="5"/>
<feGaussianBlur stdDeviation="22.5"/>
<feColorMatrix type="matrix" values="0 0 0 0 0.593724 0 0 0 0 0.684469 0 0 0 0 0.888646 0 0 0 0.1 0"/>
<feBlend mode="normal" in2="BackgroundImageFix" result="effect1_dropShadow_9_326"/>
<feBlend mode="normal" in="SourceGraphic" in2="effect1_dropShadow_9_326" result="shape"/>
</filter>
<filter id="filter11_d_9_326" x="1212" y="52" width="135" height="113" filterUnits="userSpaceOnUse" color-interpolation-filters="sRGB">
<feFlood flood-opacity="0" result="BackgroundImageFix"/>
<feColorMatrix in="SourceAlpha" type="matrix" values="0 0 0 0 0 0 0 0 0 0 0 0 0 0 0 0 0 0 127 0" result="hardAlpha"/>
<feOffset dy="5"/>
<feGaussianBlur stdDeviation="22.5"/>
<feColorMatrix type="matrix" values="0 0 0 0 0.593724 0 0 0 0 0.684469 0 0 0 0 0.888646 0 0 0 0.1 0"/>
<feBlend mode="normal" in2="BackgroundImageFix" result="effect1_dropShadow_9_326"/>
<feBlend mode="normal" in="SourceGraphic" in2="effect1_dropShadow_9_326" result="shape"/>
</filter>
<filter id="filter12_d_9_326" x="208" y="58" width="135" height="113" filterUnits="userSpaceOnUse" color-interpolation-filters="sRGB">
<feFlood flood-opacity="0" result="BackgroundImageFix"/>
<feColorMatrix in="SourceAlpha" type="matrix" values="0 0 0 0 0 0 0 0 0 0 0 0 0 0 0 0 0 0 127 0" result="hardAlpha"/>
<feOffset dy="5"/>
<feGaussianBlur stdDeviation="22.5"/>
<feColorMatrix type="matrix" values="0 0 0 0 0.593724 0 0 0 0 0.684469 0 0 0 0 0.888646 0 0 0 0.1 0"/>
<feBlend mode="normal" in2="BackgroundImageFix" result="effect1_dropShadow_9_326"/>
<feBlend mode="normal" in="SourceGraphic" in2="effect1_dropShadow_9_326" result="shape"/>
</filter>
<filter id="filter13_d_9_326" x="-44.5" y="142" width="164.5" height="166" filterUnits="userSpaceOnUse" color-interpolation-filters="sRGB">
<feFlood flood-opacity="0" result="BackgroundImageFix"/>
<feColorMatrix in="SourceAlpha" type="matrix" values="0 0 0 0 0 0 0 0 0 0 0 0 0 0 0 0 0 0 127 0" result="hardAlpha"/>
<feOffset dy="5"/>
<feGaussianBlur stdDeviation="22.5"/>
<feColorMatrix type="matrix" values="0 0 0 0 0.593724 0 0 0 0 0.684469 0 0 0 0 0.888646 0 0 0 0.1 0"/>
<feBlend mode="normal" in2="BackgroundImageFix" result="effect1_dropShadow_9_326"/>
<feBlend mode="normal" in="SourceGraphic" in2="effect1_dropShadow_9_326" result="shape"/>
</filter>
<filter id="filter14_d_9_326" x="262.224" y="352" width="109.776" height="100.182" filterUnits="userSpaceOnUse" color-interpolation-filters="sRGB">
<feFlood flood-opacity="0" result="BackgroundImageFix"/>
<feColorMatrix in="SourceAlpha" type="matrix" values="0 0 0 0 0 0 0 0 0 0 0 0 0 0 0 0 0 0 127 0" result="hardAlpha"/>
<feOffset dy="5"/>
<feGaussianBlur stdDeviation="22.5"/>
<feColorMatrix type="matrix" values="0 0 0 0 0.593724 0 0 0 0 0.684469 0 0 0 0 0.888646 0 0 0 0.1 0"/>
<feBlend mode="normal" in2="BackgroundImageFix" result="effect1_dropShadow_9_326"/>
<feBlend mode="normal" in="SourceGraphic" in2="effect1_dropShadow_9_326" result="shape"/>
</filter>
<filter id="filter15_d_9_326" x="1163" y="3" width="121" height="106" filterUnits="userSpaceOnUse" color-interpolation-filters="sRGB">
<feFlood flood-opacity="0" result="BackgroundImageFix"/>
<feColorMatrix in="SourceAlpha" type="matrix" values="0 0 0 0 0 0 0 0 0 0 0 0 0 0 0 0 0 0 127 0" result="hardAlpha"/>
<feOffset dy="5"/>
<feGaussianBlur stdDeviation="22.5"/>
<feColorMatrix type="matrix" values="0 0 0 0 0.593724 0 0 0 0 0.684469 0 0 0 0 0.888646 0 0 0 0.1 0"/>
<feBlend mode="normal" in2="BackgroundImageFix" result="effect1_dropShadow_9_326"/>
<feBlend mode="normal" in="SourceGraphic" in2="effect1_dropShadow_9_326" result="shape"/>
</filter>
<filter id="filter16_d_9_326" x="493" y="478" width="45" height="45" filterUnits="userSpaceOnUse" color-interpolation-filters="sRGB">
<feFlood flood-opacity="0" result="BackgroundImageFix"/>
<feColorMatrix in="SourceAlpha" type="matrix" values="0 0 0 0 0 0 0 0 0 0 0 0 0 0 0 0 0 0 127 0" result="hardAlpha"/>
<feOffset/>
<feGaussianBlur stdDeviation="7.5"/>
<feColorMatrix type="matrix" values="0 0 0 0 0.323144 0 0 0 0 0.512664 0 0 0 0 1 0 0 0 0.25 0"/>
<feBlend mode="normal" in2="BackgroundImageFix" result="effect1_dropShadow_9_326"/>
<feBlend mode="normal" in="SourceGraphic" in2="effect1_dropShadow_9_326" result="shape"/>
</filter>
<filter id="filter17_d_9_326" x="440" y="391" width="152" height="127.911" filterUnits="userSpaceOnUse" color-interpolation-filters="sRGB">
<feFlood flood-opacity="0" result="BackgroundImageFix"/>
<feColorMatrix in="SourceAlpha" type="matrix" values="0 0 0 0 0 0 0 0 0 0 0 0 0 0 0 0 0 0 127 0" result="hardAlpha"/>
<feOffset dy="10"/>
<feGaussianBlur stdDeviation="15"/>
<feColorMatrix type="matrix" values="0 0 0 0 0.894415 0 0 0 0 0.918495 0 0 0 0 0.984716 0 0 0 1 0"/>
<feBlend mode="normal" in2="BackgroundImageFix" result="effect1_dropShadow_9_326"/>
<feBlend mode="normal" in="SourceGraphic" in2="effect1_dropShadow_9_326" result="shape"/>
</filter>
<linearGradient id="paint0_linear_9_326" x1="716" y1="0" x2="716" y2="570" gradientUnits="userSpaceOnUse">
<stop stop-color="#F4F7FF"/>
<stop offset="1" stop-color="#F1F5FF"/>
</linearGradient>
<linearGradient id="paint1_linear_9_326" x1="278.466" y1="576.443" x2="278.466" y2="121.005" gradientUnits="userSpaceOnUse">
<stop stop-color="#4B71FF" stop-opacity="0"/>
<stop offset="1" stop-color="#6B89F8"/>
</linearGradient>
</defs>
</svg>
